<svg xmlns="http://www.w3.org/2000/svg" aria-hidden="true" role="img" class="iconify iconify--logos" width="32" height="32" preserveAspectRatio="xMidYMid meet" viewBox="0 0 256 257"><defs><linearGradient id="IconifyId1813088fe1fbc01fb466" x1="-.828%" x2="57.636%" y1="7.652%" y2="78.411%"><stop offset="0%" stop-color="#41D1FF"/><stop offset="100%" stop-color="#BD34FE"/></linearGradient><linearGradient id="IconifyId1813088fe1fbc01fb467" x1="43.376%" x2="50.316%" y1="2.242%" y2="89.03%"><stop offset="0%" stop-color="#FFEA83"/><stop offset="8.333%" stop-color="#FFDD35"/><stop offset="100%" stop-color="#FFA800"/></linearGradient></defs><path fill="url(#IconifyId1813088fe1fbc01fb466)" d="M255.153 37.938L134.897 252.976c-2.483 4.44-8.862 4.466-11.382.048L.979 37.958c-2.746-4.82 1.371-10.66 6.829-9.684l120.389 21.533a6.537 6.537 0 0 0 2.322-.004l117.608-21.5c5.44-.995 9.73 4.807 7.026 9.635Z"/><path fill="url(#IconifyId1813088fe1fbc01fb467)" d="M185.432.063L96.44 17.501a3.27 3.27 0 0 0-2.634 3.014l-5.473 92.514a3.27 3.27 0 0 0 4.007 3.306l24.777-5.718c2.318-.535 4.413 1.507 3.937 3.838l-7.36 36.098c-.495 2.43 1.786 4.507 4.15 3.781l15.305-4.702c2.367-.727 4.65 1.354 4.15 3.785l-11.698 56.636c-.732 3.542 3.979 5.473 5.943 2.437l1.313-2.028l72.516-144.796c1.215-2.423-.88-5.187-3.542-4.673l-25.505 4.922c-2.396.462-4.435-1.77-3.759-4.113l16.64-57.705c.677-2.35-1.373-4.583-3.774-4.113Z"/></svg>
